<?xml version="1.0" standalone="no"?><!-- Generator: Adobe Fireworks CS6, Export SVG Extension by Aaron Beall (http://fireworks.abeall.com) . Version: 0.6.1  --><!DOCTYPE svg PUBLIC "-//W3C//DTD SVG 1.1//EN" "http://www.w3.org/Graphics/SVG/1.1/DTD/svg11.dtd"><svg id="Untitled-Page%201" viewBox="0 0 120 48" style="background-color:#ffffff00" version="1.1"	xmlns="http://www.w3.org/2000/svg" xmlns:xlink="http://www.w3.org/1999/xlink" xml:space="preserve"	x="0px" y="0px" width="120px" height="48px">	<g id="Layer%201">		<g>			<path d="M 21 7 L 0 7 L 0 8 C 0.3438 8.0313 0.8281 8.0938 1.4375 8.2188 C 2.0313 8.3438 2.5156 8.4688 2.875 8.625 C 3.3281 8.8281 3.625 9.0781 3.7813 9.3906 C 3.9219 9.7031 4 10.0469 4 10.4375 L 4 28.875 C 4 29.3125 3.9063 29.6719 3.7344 29.9844 C 3.5469 30.2969 3.2656 30.5156 2.875 30.6719 C 2.6719 30.7656 2.2344 30.8281 1.5781 30.8906 C 0.9219 30.9531 0.3906 30.9844 0 31 L 0 32 L 11 32 L 11 31 C 10.6563 31 10.1406 30.9219 9.4844 30.7969 C 8.8125 30.6719 8.375 30.5469 8.1875 30.4531 C 7.7344 30.25 7.4219 29.9844 7.25 29.6406 C 7.0781 29.3125 7 28.9375 7 28.5 L 7 19 L 10.6094 19 C 11.5469 19 12.3594 19.0781 13.0313 19.2188 C 13.7031 19.375 14.2656 19.6406 14.7188 20.0469 C 15 20.3281 15.2813 20.7656 15.5469 21.375 C 15.7969 21.9844 15.9531 22.5313 16 23 L 17 23 L 17 14 L 16 14 C 15.9219 14.625 15.7656 15.2031 15.5156 15.7344 C 15.2656 16.2656 15 16.6563 14.7188 16.9063 C 14.2813 17.2813 13.7656 17.5625 13.1563 17.7344 C 12.5469 17.9219 11.7031 18 10.6094 18 L 7 18 L 7 8 L 11.9688 8 C 12.7188 8 13.375 8.0156 13.9688 8.0469 C 14.5625 8.0781 15.0781 8.1094 15.5156 8.1406 C 16.3594 8.2656 17.2344 8.8594 18.1719 9.9375 C 19.0938 11.0313 19.7031 12.0469 20 13 L 21 13 L 21 7 L 21 7 Z" fill="#333333"/>			<path d="M 46.9 31 C 46.6031 31 46.2281 30.9375 45.7906 30.8281 C 45.3531 30.7188 44.9938 30.5781 44.7281 30.4063 C 44.3219 30.1406 43.9938 29.8594 43.775 29.5781 C 43.5563 29.2969 43.3531 28.9375 43.1813 28.4688 L 34.775 7 L 33.3531 7 L 29.2594 17.4063 C 27.7281 21.3125 26.3219 24.8125 25.0563 27.9375 C 24.8063 28.5469 24.5406 29.0156 24.2906 29.3594 C 24.025 29.7031 23.6656 30.0313 23.1969 30.3438 C 22.8844 30.5313 22.6094 30.6875 22.1563 30.7969 C 21.7031 30.9219 21.3125 30.9844 21 31 L 21 32 L 31 32 L 31 31 C 30.0625 30.9531 29.2344 30.7813 28.4844 30.5 C 27.7344 30.2188 26.9938 29.8281 26.9938 29.3281 C 26.9938 29.1094 27.025 28.8281 27.0875 28.4844 C 27.15 28.1406 27.2594 27.7031 27.4313 27.1563 C 27.6188 26.5938 27.8219 25.9844 28.0563 25.3281 C 28.275 24.6719 28.5719 23.8906 28.9469 23 L 37.9313 23 L 40.1969 29.0625 C 40.2281 29.1875 40.2594 29.3438 40.2906 29.5 C 40.3063 29.6719 40.3219 29.8125 40.3219 29.9219 C 40.3219 30.2031 39.8594 30.4375 39.2656 30.625 C 38.6719 30.8125 37.9063 30.9375 37 31 L 37 32 L 47 32 L 47 31 L 46.9 31 ZM 29.3531 22 L 33.3844 11.5938 L 37.4781 22 L 29.3531 22 L 29.3531 22 Z" fill="#333333"/>			<path d="M 61.5 31 C 61.0781 31 60.5781 30.9375 59.9844 30.8125 C 59.3906 30.7031 58.9531 30.5938 58.7031 30.5 C 58.2656 30.3125 58.4531 30.0781 58.2656 29.7656 C 58.0781 29.4688 58 29.125 58 28.7188 L 58 10.2188 C 58 9.8281 58.0781 9.4688 58.2344 9.1406 C 58.3906 8.8125 58.2188 8.5781 58.7031 8.4375 C 59.0938 8.3125 60.0625 8.2188 60.6094 8.1406 C 61.1406 8.0625 61.6094 8.0156 62 8 L 62 7 L 51 7 L 51 8 C 51.3594 8.0313 51.8281 8.1094 52.3906 8.2344 C 52.9531 8.3594 52.9375 8.5 53.3125 8.625 C 53.8281 8.8281 54.6563 9.0625 54.7969 9.3438 C 54.9219 9.625 55 9.9844 55 10.3906 L 55 28.9063 C 55 29.3906 54.9063 29.7656 54.7188 30.0313 C 54.5313 30.3125 53.7188 30.5156 53.3125 30.6719 C 53.0469 30.7656 53.0938 30.8438 52.4531 30.8906 C 51.8125 30.9531 51.3281 30.9844 51 31 L 51 32 L 62 32 L 62 31 L 61.5 31 Z" fill="#333333"/>			<path d="M 119.3 31 C 119.0188 31 118.6594 30.9375 118.1906 30.8281 C 117.7219 30.7188 117.3938 30.6094 117.2219 30.5 C 116.8469 30.2813 116.3125 30.0313 116.1875 29.75 C 116.0625 29.4688 116 29.1094 116 28.6719 L 116 10.25 C 116 9.8594 116.0625 9.5 116.1875 9.1563 C 116.3125 8.8125 116.8469 8.5781 117.2219 8.4375 C 117.425 8.3594 117.4531 8.2656 117.8906 8.1719 C 118.3281 8.0781 118.6875 8.0156 119 8 L 119 7 L 110 7 L 110 8 C 110.2813 8.0313 110.6406 8.0938 111.0469 8.2188 C 111.4531 8.3438 112.0969 8.4688 112.3781 8.625 C 112.7219 8.8125 112.6563 9.0469 112.7969 9.3594 C 112.9219 9.6719 113 10.0156 113 10.3906 L 113 18 L 100 18 L 100 10.2188 C 100 9.8281 100.0625 9.4688 100.1875 9.1406 C 100.3125 8.8125 100.8469 8.5781 101.2219 8.4219 C 101.425 8.3438 101.4531 8.25 101.8906 8.1563 C 102.3281 8.0625 102.6875 8.0156 103 8 L 103 7 L 94 7 L 94 8 C 94.2813 8.0313 94.6406 8.0938 95.0469 8.2188 C 95.4531 8.3438 96.0969 8.4688 96.3781 8.625 C 96.7219 8.8125 96.6563 9.0781 96.7969 9.3906 C 96.9219 9.7031 97 10.0625 97 10.4375 L 97 28.875 C 97 29.3438 96.9219 29.7344 96.7813 30.0156 C 96.625 30.3125 96.6906 30.5313 96.3781 30.6719 C 96.1906 30.7656 95.5625 30.8438 95.0938 30.8906 C 94.6094 30.9531 94.25 30.9844 94 31 L 94 32 L 103 32 L 103 31 C 102.7188 31 102.3594 30.9375 101.8906 30.8125 C 101.4219 30.7031 101.3938 30.5781 101.2219 30.4531 C 100.8469 30.2344 100.3125 29.9688 100.1875 29.6563 C 100.0625 29.3438 100 28.9688 100 28.5156 L 100 19 L 113 19 L 113 28.7344 C 113 29.2344 112.9219 29.6406 112.7813 29.9531 C 112.625 30.2656 112.6906 30.5 112.3781 30.6563 C 112.1906 30.7656 111.5625 30.8438 111.0938 30.8906 C 110.6094 30.9531 110.25 30.9844 110 31 L 110 32 L 119 32 L 119 31 L 119.3 31 Z" fill="#333333"/>		</g>		<path d="M 75 0 L 75 7 L 68 7 L 68 14 L 75 14 L 75 36.2941 L 78.5 33.8824 L 82 36 L 82 14 L 89 14 L 89 7 L 82 7 L 82 0 L 75 0 Z" fill="#be1d2c"/>		<g>			<path d="M 2.2188 48 L 5.2813 48 C 6.2344 48 6.9844 47.7969 7.5156 47.3594 C 8.0469 46.9219 8.3125 46.3281 8.3125 45.5469 C 8.3125 44.4063 7.6406 43.7188 6.3125 43.4844 L 6.3125 43.4219 C 6.8594 43.3281 7.2813 43.0938 7.5781 42.7188 C 7.8594 42.3594 8.0156 41.8906 8.0156 41.3281 C 8.0156 40.5313 7.75 39.9375 7.2344 39.5625 C 6.7031 39.1875 5.8594 39 4.7031 39 L 2 39 L 2 48 L 2.2188 48 ZM 3.2188 40 L 4.7344 40 C 5.5156 40 6.0781 40.125 6.4375 40.3438 C 6.7969 40.5781 6.9844 40.9531 6.9844 41.4531 C 6.9844 42.0156 6.8125 42.4219 6.5 42.6563 C 6.1719 42.8906 5.6406 43 4.9219 43 L 3 43 L 3 40 L 3.2188 40 ZM 5 44 C 5.75 44 6.3125 44.125 6.6875 44.3594 C 7.0625 44.5938 7.25 44.9531 7.25 45.4531 C 7.25 45.9844 7.0625 46.375 6.7031 46.625 C 6.3281 46.875 5.7969 47 5.0781 47 L 3 47 L 3 44 L 5 44 L 5 44 Z" fill="#333333"/>			<path d="M 14 48 L 14 39 L 13 39 L 13 48 L 14 48 Z" fill="#333333"/>			<path d="M 19.2188 48 L 22.2813 48 C 23.2344 48 23.9844 47.7969 24.5156 47.3594 C 25.0469 46.9219 25.3125 46.3281 25.3125 45.5469 C 25.3125 44.4063 24.6406 43.7188 23.3125 43.4844 L 23.3125 43.4219 C 23.8594 43.3281 24.2813 43.0938 24.5781 42.7188 C 24.8594 42.3594 25.0156 41.8906 25.0156 41.3281 C 25.0156 40.5313 24.75 39.9375 24.2344 39.5625 C 23.7031 39.1875 22.8594 39 21.7031 39 L 19 39 L 19 48 L 19.2188 48 ZM 20.2188 40 L 21.7344 40 C 22.5156 40 23.0781 40.125 23.4375 40.3438 C 23.7969 40.5781 23.9844 40.9531 23.9844 41.4531 C 23.9844 42.0156 23.8125 42.4219 23.5 42.6563 C 23.1719 42.8906 22.6406 43 21.9219 43 L 20 43 L 20 40 L 20.2188 40 ZM 22 44 C 22.75 44 23.3125 44.125 23.6875 44.3594 C 24.0625 44.5938 24.25 44.9531 24.25 45.4531 C 24.25 45.9844 24.0625 46.375 23.7031 46.625 C 23.3281 46.875 22.7969 47 22.0781 47 L 20 47 L 20 44 L 22 44 L 22 44 Z" fill="#333333"/>			<path d="M 35 48 L 35 47 L 31 47 L 31 39 L 30 39 L 30 48 L 34.7344 48 L 35 48 Z" fill="#333333"/>			<path d="M 44.25 47 L 40 47 L 40 44 L 44 44 L 44 43 L 40 43 L 40 40 L 44 40 L 44 39 L 39 39 L 39 48 L 44 48 L 44 47 L 44.25 47 Z" fill="#333333"/>			<path d="M 61.1719 40.4531 L 61.625 39.5469 C 60.9063 39.1875 60.0781 39 59.1406 39 C 58.2344 39 57.4688 39.1875 56.8125 39.5625 C 56.1563 39.9375 55.6406 40.4531 55.2969 41.125 C 54.9531 41.8125 54.7813 42.5938 54.7813 43.4844 C 54.7813 44.9375 55.1406 46.0469 55.8594 46.8281 C 56.5781 47.6094 57.6094 48 58.9531 48 C 59.8594 48 60.6406 47.875 61.2656 47.625 L 61.2656 46.6719 C 60.4531 46.8906 59.7188 47 59.0781 47 C 58.0469 47 57.25 46.7031 56.6875 46.0938 C 56.125 45.4844 55.8438 44.625 55.8438 43.5 C 55.8438 42.4219 56.125 41.5625 56.7188 40.9375 C 57.2969 40.3125 58.0938 40 59.0938 40 C 59.7813 40 60.4844 40.1563 61.1719 40.4531 L 61.1719 40.4531 Z" fill="#333333"/>			<path d="M 72.8125 39 L 72 39 L 72 43 L 67 43 L 67 39 L 66 39 L 66 48 L 67 48 L 67 44 L 72 44 L 72 48 L 73 48 L 73 39 L 72.8125 39 Z" fill="#333333"/>			<path d="M 84 39 L 84 44.7188 C 84 45.4531 83.6875 46.0156 83.2813 46.4063 C 82.875 46.8125 82.2813 47 81.5313 47 C 80.7344 47 80.0156 46.8125 79.6094 46.4219 C 79.2031 46.0313 79 45.4688 79 44.7188 L 79 39 L 78 39 L 78 44.7188 C 78 45.75 78.2813 46.5469 78.875 47.125 C 79.4531 47.7188 80.3906 48 81.4531 48 C 82.5156 48 83.4688 47.7188 84.0781 47.1406 C 84.6875 46.5625 85 45.7656 85 44.75 L 85 39 L 83.8906 39 L 84 39 Z" fill="#333333"/>			<path d="M 92.6875 44 L 94.625 48 L 95.8125 48 L 93.6094 43.6719 C 94.6875 43.2813 95.2344 42.5156 95.2344 41.3906 C 95.2344 40.6094 94.9844 40.0156 94.5156 39.6094 C 94.0469 39.2031 93.3125 39 92.3281 39 L 90 39 L 90 48 L 91 48 L 91 44 L 92.6875 44 L 92.6875 44 ZM 91.1094 40 L 92.2813 40 C 92.9531 40 93.4375 40.125 93.75 40.3438 C 94.0469 40.5781 94.2031 40.9531 94.2031 41.4688 C 94.2031 41.9844 94.0469 42.375 93.75 42.625 C 93.4531 42.875 92.9844 43 92.3438 43 L 91 43 L 91 40 L 91.1094 40 Z" fill="#333333"/>			<path d="M 106.1719 40.4531 L 106.625 39.5469 C 105.9063 39.1875 105.0781 39 104.1406 39 C 103.2344 39 102.4688 39.1875 101.8125 39.5625 C 101.1563 39.9375 100.6406 40.4531 100.2969 41.125 C 99.9531 41.8125 99.7813 42.5938 99.7813 43.4844 C 99.7813 44.9375 100.1406 46.0469 100.8594 46.8281 C 101.5781 47.6094 102.6094 48 103.9531 48 C 104.8594 48 105.6406 47.875 106.2656 47.625 L 106.2656 46.6719 C 105.4531 46.8906 104.7188 47 104.0781 47 C 103.0469 47 102.25 46.7031 101.6875 46.0938 C 101.125 45.4844 100.8438 44.625 100.8438 43.5 C 100.8438 42.4219 101.125 41.5625 101.7188 40.9375 C 102.2969 40.3125 103.0938 40 104.0938 40 C 104.7813 40 105.4844 40.1563 106.1719 40.4531 L 106.1719 40.4531 Z" fill="#333333"/>			<path d="M 117.8125 39 L 117 39 L 117 43 L 112 43 L 112 39 L 111 39 L 111 48 L 112 48 L 112 44 L 117 44 L 117 48 L 118 48 L 118 39 L 117.8125 39 Z" fill="#333333"/>		</g>	</g></svg>