<?xml version="1.0" standalone="no"?><!-- Generator: Adobe Fireworks CS5, Export SVG Extension by Aaron Beall (http://fireworks.abeall.com) . Version: 0.6.1  --><!DOCTYPE svg PUBLIC "-//W3C//DTD SVG 1.1//EN" "http://www.w3.org/Graphics/SVG/1.1/DTD/svg11.dtd"><svg id="Untitled-Page%201" viewBox="0 0 153 79" style="background-color:#ffffff00" version="1.1"	xmlns="http://www.w3.org/2000/svg" xmlns:xlink="http://www.w3.org/1999/xlink" xml:space="preserve"	x="0px" y="0px" width="153px" height="79px">	<g id="Layer%201">		<g>			<g>				<path d="M 0 11 L 0 48 L 6 48 L 6 34 L 17 34 L 17 28 L 6 28 L 6 17 L 19 17 L 19 11 L 0 11 Z" fill="#3f3f40"/>				<path d="M 71 48 L 65 48 L 65 11 L 71 11 L 71 48 Z" fill="#3f3f40"/>				<path d="M 94 0 L 94 11 L 83 11 L 83 23 L 94 23 L 94 62.5778 L 100.2634 59.0222 L 107 62.7111 L 107 23 L 118 23 L 118 11 L 107 11 L 107 0 L 94 0 Z" fill="#be1d2c"/>				<path d="M 49.8852 48 L 55.4242 48 L 42.4999 11 L 36.9609 11 L 24.0366 48 L 29.5756 48 L 32.8067 38 L 46.6542 38 L 49.8852 48 ZM 34.7453 33 L 39.7304 18.5715 L 44.7155 33 L 34.7453 33 Z" fill="#3f3f40"/>				<path d="M 147 11 L 147 28 L 133 28 L 133 11 L 127 11 L 127 48 L 133 48 L 133 34 L 147 34 L 147 48 L 153 48 L 153 11 L 147 11 Z" fill="#3f3f40"/>			</g>			<g>				<path d="M 5.2738 78.9422 C 6.3412 78.9422 7.1663 78.7001 7.7491 78.2045 C 8.3318 77.7088 8.6261 77.0056 8.6261 76.0833 C 8.6261 75.4147 8.4357 74.8902 8.0606 74.5156 C 7.6856 74.1409 7.1028 73.8931 6.3124 73.7778 L 6.3124 73.7259 C 6.9471 73.6279 7.426 73.4031 7.7606 73.0573 C 8.0895 72.7115 8.2568 72.2734 8.2568 71.7431 C 8.2568 70.942 7.9856 70.3425 7.4433 69.9448 C 6.9009 69.5529 6.0585 69.3511 4.9046 69.3511 L 2.3485 69.3511 L 2.3485 78.9422 L 5.2738 78.9422 L 5.2738 78.9422 ZM 3.0871 74.1467 L 5.1469 74.1467 C 6.9701 74.1467 7.8875 74.7922 7.8875 76.0833 C 7.8875 77.5013 7.0221 78.2045 5.2911 78.2045 L 3.0871 78.2045 L 3.0871 74.1467 L 3.0871 74.1467 ZM 3.0871 70.0889 L 4.9161 70.0889 C 5.7758 70.0889 6.422 70.2215 6.8605 70.4809 C 7.299 70.746 7.5183 71.161 7.5183 71.7316 C 7.5183 72.308 7.3221 72.7345 6.9355 73.0054 C 6.549 73.2763 5.9316 73.4089 5.0834 73.4089 L 3.0871 73.4089 L 3.0871 70.0889 L 3.0871 70.0889 Z" fill="#3f3f40"/>				<path d="M 17.2964 78.9422 L 17.2964 69.3511 L 16.5579 69.3511 L 16.5579 78.9422 L 17.2964 78.9422 L 17.2964 78.9422 Z" fill="#3f3f40"/>				<path d="M 28.5228 78.9422 C 29.5902 78.9422 30.4153 78.7001 30.9981 78.2045 C 31.5808 77.7088 31.8751 77.0056 31.8751 76.0833 C 31.8751 75.4147 31.6847 74.8902 31.3096 74.5156 C 30.9346 74.1409 30.3518 73.8931 29.5614 73.7778 L 29.5614 73.7259 C 30.1961 73.6279 30.6749 73.4031 31.0096 73.0573 C 31.3385 72.7115 31.5058 72.2734 31.5058 71.7431 C 31.5058 70.942 31.2346 70.3425 30.6923 69.9448 C 30.1499 69.5529 29.3075 69.3511 28.1535 69.3511 L 25.5975 69.3511 L 25.5975 78.9422 L 28.5228 78.9422 L 28.5228 78.9422 ZM 26.3361 74.1467 L 28.3959 74.1467 C 30.2191 74.1467 31.1365 74.7922 31.1365 76.0833 C 31.1365 77.5013 30.2711 78.2045 28.5401 78.2045 L 26.3361 78.2045 L 26.3361 74.1467 L 26.3361 74.1467 ZM 26.3361 70.0889 L 28.1651 70.0889 C 29.0248 70.0889 29.671 70.2215 30.1095 70.4809 C 30.548 70.746 30.7673 71.161 30.7673 71.7316 C 30.7673 72.308 30.5711 72.7345 30.1845 73.0054 C 29.7979 73.2763 29.1806 73.4089 28.3324 73.4089 L 26.3361 73.4089 L 26.3361 70.0889 L 26.3361 70.0889 Z" fill="#3f3f40"/>				<path d="M 44.9766 78.9422 L 44.9766 78.2045 L 40.5454 78.2045 L 40.5454 69.3511 L 39.8069 69.3511 L 39.8069 78.9422 L 44.9766 78.9422 L 44.9766 78.9422 Z" fill="#3f3f40"/>				<path d="M 57.3396 78.9422 L 57.3396 78.2045 L 52.9084 78.2045 L 52.9084 74.1467 L 56.9704 74.1467 L 56.9704 73.4089 L 52.9084 73.4089 L 52.9084 70.0889 L 57.3396 70.0889 L 57.3396 69.3511 L 52.1699 69.3511 L 52.1699 78.9422 L 57.3396 78.9422 L 57.3396 78.9422 Z" fill="#3f3f40"/>				<path d="M 74.7265 77.6626 C 75.4997 78.5157 76.5498 78.9422 77.8884 78.9422 C 78.8231 78.9422 79.6078 78.8212 80.2367 78.5733 L 80.2367 77.8356 C 79.5674 78.0834 78.8404 78.2045 78.0442 78.2045 C 76.844 78.2045 75.9209 77.8471 75.2747 77.1266 C 74.6285 76.4119 74.3111 75.4032 74.3111 74.1006 C 74.3111 72.8556 74.6515 71.8757 75.3381 71.161 C 76.019 70.4463 76.9594 70.0889 78.148 70.0889 C 78.9096 70.0889 79.6366 70.2561 80.329 70.5788 L 80.5944 69.9909 C 79.8616 69.5644 79.0308 69.3511 78.1076 69.3511 C 77.196 69.3511 76.3998 69.5471 75.7132 69.939 C 75.0266 70.331 74.4958 70.8843 74.1265 71.599 C 73.7572 72.3195 73.5726 73.1495 73.5726 74.089 C 73.5726 75.6222 73.9534 76.8096 74.7265 77.6626 L 74.7265 77.6626 Z" fill="#3f3f40"/>				<path d="M 88.8897 78.9422 L 88.8897 74.1467 L 94.0595 74.1467 L 94.0595 78.9422 L 94.798 78.9422 L 94.798 69.3511 L 94.0595 69.3511 L 94.0595 73.4089 L 88.8897 73.4089 L 88.8897 69.3511 L 88.1512 69.3511 L 88.1512 78.9422 L 88.8897 78.9422 L 88.8897 78.9422 Z" fill="#3f3f40"/>				<path d="M 104.0626 78.02 C 104.7031 78.6367 105.5974 78.9422 106.7398 78.9422 C 107.9169 78.9422 108.8342 78.6367 109.492 78.0258 C 110.1497 77.4148 110.4844 76.5618 110.4844 75.4724 L 110.4844 69.3511 L 109.7459 69.3511 L 109.7459 75.432 C 109.7459 76.3024 109.4862 76.9825 108.9785 77.4724 C 108.465 77.9624 107.7438 78.2045 106.8206 78.2045 C 105.8686 78.2045 105.1358 77.9566 104.6165 77.4609 C 104.0973 76.9652 103.8376 76.2678 103.8376 75.3686 L 103.8376 69.3511 L 103.0991 69.3511 L 103.0991 75.4493 C 103.0991 76.5502 103.4164 77.409 104.0626 78.02 L 104.0626 78.02 Z" fill="#3f3f40"/>				<path d="M 119.524 78.9422 L 119.524 74.8845 L 121.7339 74.8845 L 124.0706 78.9422 L 124.8611 78.9422 L 122.3512 74.6424 C 123.0148 74.4522 123.511 74.1351 123.8341 73.6856 C 124.1572 73.2417 124.3245 72.6942 124.3245 72.0429 C 124.3245 71.1437 124.0476 70.4751 123.5052 70.0255 C 122.9571 69.5759 122.1147 69.3511 120.978 69.3511 L 118.7855 69.3511 L 118.7855 78.9422 L 119.524 78.9422 L 119.524 78.9422 ZM 119.524 70.0889 L 120.9953 70.0889 C 121.907 70.0889 122.5705 70.2503 122.9744 70.5673 C 123.3783 70.8901 123.586 71.3973 123.586 72.0947 C 123.586 72.7749 123.3783 73.2821 122.9628 73.6279 C 122.5474 73.9738 121.9704 74.1467 121.2204 74.1467 L 119.524 74.1467 L 119.524 70.0889 L 119.524 70.0889 Z" fill="#3f3f40"/>				<path d="M 132.6718 77.6626 C 133.4449 78.5157 134.495 78.9422 135.8336 78.9422 C 136.7683 78.9422 137.553 78.8212 138.1819 78.5733 L 138.1819 77.8356 C 137.5126 78.0834 136.7856 78.2045 135.9894 78.2045 C 134.7893 78.2045 133.8661 77.8471 133.2199 77.1266 C 132.5737 76.4119 132.2563 75.4032 132.2563 74.1006 C 132.2563 72.8556 132.5968 71.8757 133.2834 71.161 C 133.9642 70.4463 134.9047 70.0889 136.0932 70.0889 C 136.8549 70.0889 137.5818 70.2561 138.2742 70.5788 L 138.5396 69.9909 C 137.8069 69.5644 136.976 69.3511 136.0529 69.3511 C 135.1412 69.3511 134.345 69.5471 133.6584 69.939 C 132.9718 70.331 132.441 70.8843 132.0717 71.599 C 131.7024 72.3195 131.5178 73.1495 131.5178 74.089 C 131.5178 75.6222 131.8986 76.8096 132.6718 77.6626 L 132.6718 77.6626 Z" fill="#3f3f40"/>				<path d="M 146.8349 78.9422 L 146.8349 74.1467 L 152.0047 74.1467 L 152.0047 78.9422 L 152.7432 78.9422 L 152.7432 69.3511 L 152.0047 69.3511 L 152.0047 73.4089 L 146.8349 73.4089 L 146.8349 69.3511 L 146.0964 69.3511 L 146.0964 78.9422 L 146.8349 78.9422 L 146.8349 78.9422 Z" fill="#3f3f40"/>			</g>		</g>	</g></svg>